<?xml version="1.0" encoding="utf-8"?>
<!-- Generator: Adobe Illustrator 24.3.0, SVG Export Plug-In . SVG Version: 6.00 Build 0)  -->
<svg version="1.1" id="Capa_1" xmlns="http://www.w3.org/2000/svg" xmlns:xlink="http://www.w3.org/1999/xlink" x="0px" y="0px"
	 viewBox="0 0 1600 300" style="enable-background:new 0 0 1600 300;" xml:space="preserve">
<style type="text/css">
	.st0{fill:#FFFFFF;}
	.st1{fill:#E9E9E9;}
	.st2{fill:#F4B303;}
	.st3{fill:#E8E8E8;stroke:#000000;stroke-width:2;stroke-miterlimit:10;}
	.st4{fill:#FEE4BF;}
	.st5{fill:#A07A30;}
	.st6{display:none;}
	.st7{display:inline;fill:#01295F;}
	.st8{opacity:0.69;fill:#E9E9E9;}
	.st9{opacity:0.4;fill:#E9E9E9;stroke:#000000;stroke-width:2;stroke-miterlimit:10;}
	.st10{fill:#FD151B;}
</style>
<image style="overflow:visible;" width="376" height="280" xlink:href="F0F27FBA.jpg"  transform="matrix(1 0 0 1 -931.5555 -127.2115)">
</image>
<rect x="-767.6" y="118.1" class="st0" width="161.9" height="16.3"/>
<path class="st1" d="M-478.1-85c9.1-4.1,18.2-4.7,18.2-4.7c4.5-0.3,5.8,0.2,9.4,0c4.5-0.3,10.2-1.5,20.6-7.7
	c15.7-9.3,15.9-14.2,29.1-21c8-4.1,14.6-5.8,16.5-6.2c7.3-1.7,23.6-5.6,37,2.1c7.4,4.2,5.5,7.2,15.9,13.6c6.6,4.1,13,6.4,18.2,8.3
	c3.9,1.4,8.8,3.2,15.6,4.4c8.5,1.6,10.5,0.7,14.7,1.8c8.8,2.3,16.5,11.5,19.1,18.1c0.2,0.6,0.6,1.6,1.5,2.7
	c3.3,4.1,9.3,3.8,12.1,4.1c10.5,1.4,19.8,18.6,20.9,32c0.8,10.5-3.9,12.7-5.9,27C-236-5-236-0.6-236,0.8c0.4,5.9,1.6,5.7,3.8,16.2
	c0,0,2.5,11.6,0.7,19c-0.2,0.9-0.5,1.8-0.5,1.8c-0.7,1.9-1.7,3.6-4.2,8c-2.5,4.3-4.2,7.6-5.5,10.1c-2.7,5.3-3.5,6.2-4.7,8.8
	c-2.1,4.7-1.5,4.5-2.5,5.7c-3.2,4.1-10.1,5.7-15.3,4.7c-2-0.4-3.5-1.1-6.3-0.9c-1.5,0.1-3.8,0.3-5.6,1.8c-1.6,1.3-1.1,2.1-2.8,3.3
	c-1.3,1-1.6,0.4-4.8,1.8c-2.5,1.1-3.2,1.6-6,2.3c-2.3,0.6-4.2,0.8-5.8,0.9c-4.7,0.2-10.4,0.2-11.8,0.3c-8.3,0.3-8.8,8.9-18.8,13.6
	c-9.2,4.3-19.5,2.2-32.1-0.3c-6.5-1.3-11.4-2.9-11.4-2.9c-6.6-2.1-9.1-3.8-20.1-6c-7.8-1.5-20.1-4-36.2-3.9
	c-15.4,0.1-23.1-1.4-24.1-1.8c-16.6-5.8-25.4-21.3-27.3-24.6c-3.9-6.8-6.1-14-9.2-24c-3-9.7-3.9-15.4-8.3-20.4c-0.9-1-3.3-3.8-5.8-8
	c-0.9-1.6-1.9-3.5-2.8-6.2C-516.3-35.4-494.2-77.7-478.1-85z"/>
<circle class="st2" cx="-350" cy="274.8" r="48.7"/>
<g id="HUEVO_BLANCO_1_">
	<path class="st3" d="M730.4,839.9c7.3-24-6.5-36.6,3.1-48.9c7.4-9.5,16.6-3.1,34.2-13.3c21.2-12.3,18.4-27.5,32.9-31.6
		c18.5-5.2,26,18.6,54.7,20c23,1.1,29.6-13.8,51.1-8.4c2.7,0.7,20.2,5,27.1,19.1c6.5,13.1-3.1,20.6,2.6,33.8
		c7.3,16.8,26.7,14,30.2,27.6c3.1,11.9-11.3,16.3-16,38.7c-4.4,20.7,5.8,26.9-0.9,40.9c-6.4,13.3-16.6,9.7-30.2,25.8
		c-14.8,17.5-9.2,29.4-20.5,36c-12.6,7.3-22.2-5.8-50.6-8.4c-34.6-3.2-44.2,14.2-63.6,4.9c-14.7-7-9.2-17-33.3-38.7
		c-15.6-14.1-22.4-14-30.2-26.7c-1.9-3.1-11.1-18-8.4-36C715.1,857.8,724.9,857.9,730.4,839.9z"/>
	<circle id="_x33_er_yema_4_" class="st2" cx="839.5" cy="863.5" r="48.7"/>
	<path id="_x33_er_luz_4_" class="st4" d="M831.4,840.9l12.1-15.5c0,0,13.9-1.1,25.6,9.9l-10.7,16.1
		C858.4,851.4,850.4,841.4,831.4,840.9z"/>
</g>
<image style="overflow:visible;" width="1920" height="937" xlink:href="../../../../Users/iec_g/OneDrive/Imágenes/Screenpresso/2022-07-26_19h48_51.png"  transform="matrix(0.2384 0 0 0.2384 925.0811 -656.7662)">
</image>
<path class="st4" d="M-350-26l12.1-15.5c0,0,13.9-1.1,25.6,9.9L-323-15.5C-323-15.5-331.1-25.6-350-26z"/>
<path class="st4" d="M-357.2,270.9l12.1-15.5c0,0,13.9-1.1,25.6,9.9l-10.7,16.1C-330.2,281.4-338.3,271.3-357.2,270.9z"/>
<circle class="st5" cx="-474.2" cy="-68.9" r="2"/>
<path class="st1" d="M-499.1,179.2"/>
<path class="st1" d="M-1224.2-153.7c5-1.5,8.6-6.5,29.7-4.1c1.1,0.1,2.2,0,3.2-0.5c6.1-2.6,27.2-12,35.1-22.1
	c9.2-11.9,39.7-15.4,56-7.1c16.3,8.3,7.7,21,54.2,27.8c0.2,0,0.4,0,0.6,0.1c2.4,0.1,20.9,1.8,27.4,19.7c0.1,0.3,0.3,0.7,0.4,1
	c0.8,1.3,3.1,4.7,7.1,5.7c5,1.2,45.5,13.1,24.3,42.2c-14.5,19.9-10.1,24.9-5.7,35.7l2.9,4.7c0.1,0.7,0.2,1.4,0.5,2.1
	c1.6,3.6,6.3,26.1-3.4,35c-2.3,2.1-4.6,2.6-6.5,6c-1.7,2.9-1.9,5.9-1.8,8.1c0.1,0.6,0.2,1.9-0.2,3.2c-0.7,2.3-2.5,3.4-3,3.7
	c0,0-5.5,4.5-18.6,3.4c-2.1-0.2-4.1,0.6-5.5,2.2c-2,2.3-5.8,5.6-11.8,6.9c-8.9,1.9-12.7,1.8-20.4,0.4c-1.6-0.3-3.3,0.1-4.7,1
	c-5.4,3.5-7.3,7.6-11.6,11.6c-7.5,7-20.4,5.7-27,3.7c-5.8-1.7-5.1-3.5-12.7-7c-5.7-2.6-8.4-2.7-25.7-5.7
	c-21.1-3.6-21.6-4.3-27.3-4.1c-8.8,0.2-10.1,1.9-18.4,1.5c-4.5-0.2-12-0.7-20.4-4.7c0,0-14.8-7.1-23.9-24.4c0-0.1-0.1-0.2-0.1-0.2
	c0,0-0.1-0.1-0.1-0.2c-4.2-9.7-6.1-20-6.1-20c-1.8-9.5-8.7-14-14.5-25.5c-14.4-28.1-8.9-42.5-8.6-45.3c2.4-19.6,12.2-33.2,17.3-39.1
	C-1237-145.7-1232.3-151.2-1224.2-153.7z"/>
<path class="st1" d="M-875.7,12.8"/>
<g id="FONDO" class="st6">
	<rect x="-146.3" y="-361.8" class="st7" width="1920" height="1080"/>
</g>
<circle class="st8" cx="-713.4" cy="14.7" r="124.4"/>
<circle id="_x33_er_huevo" class="st2" cx="-338.4" cy="0.8" r="48.7"/>
<g id="IMAGOLOGO_1_">
	<g>
		<path class="st9" d="M1948.3,501.7c7.3-24-6.5-36.6,3.1-48.9c7.4-9.5,16.6-3.1,34.2-13.3c21.2-12.3,18.4-27.5,32.9-31.6
			c18.5-5.2,26,18.6,54.7,20c23,1.1,29.6-13.8,51.1-8.4c2.7,0.7,20.2,5,27.1,19.1c6.5,13.1-3.1,20.6,2.6,33.8
			c7.3,16.8,26.7,14,30.2,27.6c3.1,11.9-11.3,16.3-16,38.7c-4.4,20.7,5.8,26.9-0.9,40.9c-6.4,13.3-16.6,9.7-30.2,25.8
			c-14.8,17.5-9.2,29.4-20.5,36c-12.6,7.3-22.2-5.8-50.6-8.4c-34.6-3.2-44.2,14.2-63.6,4.9c-14.7-7-9.2-17-33.3-38.7
			c-15.6-14.1-22.4-14-30.2-26.7c-1.9-3.1-11.1-18-8.4-36C1933,519.6,1942.8,519.7,1948.3,501.7z"/>
		<circle id="_x33_er_yema_2_" class="st2" cx="2057.4" cy="525.3" r="48.7"/>
		<path id="_x33_er_luz_2_" class="st4" d="M2049.3,502.7l12.1-15.5c0,0,13.9-1.1,25.6,9.9l-10.7,16.1
			C2076.3,513.2,2068.3,503.1,2049.3,502.7z"/>
		<g>
			<g>
				<path class="st10" d="M41.5,208.3c-6.4,0-11.5-1.6-15.3-4.8c-3.8-3.2-6.5-7.5-8.1-12.9c-1.6-5.4-2.4-11.6-2.4-18.6
					c0-2.9,0.1-6,0.3-9.2c0.2-3.2,0.6-6.5,1.1-9.9c0.5-3.3,1.1-6.7,1.9-10c0.8-3.3,1.7-6.5,2.8-9.7c1.1-3.2,2.4-6.2,3.8-9
					c5.9-11.5,13.1-19.9,21.3-25.4c8.3-5.5,18-8.2,29.2-8.2c7.1,0,13,1.3,17.6,3.8c4.6,2.5,8.4,5.7,11.2,9.7c2.8,3.9,5,8.1,6.6,12.4
					c1.4,3.6,3.1,6.7,4.9,9.4c1.8,2.7,4.1,4,6.8,4c3,0,5.5-0.8,7.6-2.5c2-1.7,4.3-4.7,6.7-9.2c2.5-4.4,5.5-8.6,9-12.4
					c3.5-3.8,7.8-7,13.1-9.3c5.3-2.4,11.8-3.6,19.6-3.6c11.6,0,20.9,2.7,27.7,8c6.9,5.4,11.8,12.8,14.9,22.4
					c3.1,9.6,4.6,20.7,4.6,33.3c0,3.3-0.1,6.7-0.3,9.9c-0.2,3.3-0.4,6.4-0.8,9.4c-0.4,3-0.9,5.9-1.4,8.6c-0.6,2.7-1.3,5.3-2,7.6
					c-2.2,5.4-5.2,9.5-9.2,12.4c-3.9,2.9-9.2,4.4-15.9,4.4c-6.1,0-11.2-1.3-15.2-4c-4-2.7-7.1-6.2-9.2-10.7
					c-0.5-1.2-0.9-2.4-1.3-3.7c-0.3-1.3-0.6-2.7-0.9-4.1c-0.3-1.5-0.5-3-0.7-4.6c-0.2-1.6-0.4-3.3-0.6-5c-0.2-1.8-0.3-3.6-0.4-5.5
					c-0.4-3.8-1-7.1-1.7-9.7c-0.7-2.6-1.6-4.5-2.6-5.8c-1-1.3-2.3-1.9-3.7-1.9c-1.7,0-3.3,0.9-4.8,2.8c-1.5,1.9-2.9,4.3-4.3,7.2
					c-1.3,2.9-2.6,6-3.9,9.2c-2.8,7.4-6.2,12.7-10.1,15.9c-3.9,3.1-9.6,4.7-17,4.7c-7.7,0-13.5-1.9-17.3-5.7
					c-3.8-3.8-6.5-8.4-8-13.7c-1.2-4.3-2.3-7.9-3.3-10.8c-1-2.8-2.1-4.9-3.2-6.3c-1.1-1.3-2.5-2-4.2-2c-1.4,0-2.9,0.6-4.5,1.9
					c-1.5,1.3-3,3.2-4.3,5.8c-1.1,2.3-2.1,4.9-2.9,7.5c-0.9,2.7-1.7,5.4-2.4,8.1c-0.7,2.7-1.3,5.4-1.7,8c-1.8,8.2-4.7,13.9-8.6,17.1
					C56.4,206.7,50.1,208.3,41.5,208.3z"/>
				<path class="st10" d="M278.8,259.2c-7.2,0-13.1-2-17.6-5.9c-4.5-3.9-6.8-8.7-6.8-14.3c0-5.8,1.7-10.6,5-14.5
					c3.3-3.9,8.2-7,14.7-9.2c3.5-1.4,7.3-3,11.5-4.8c4.1-1.8,8.1-3.7,11.8-5.8c3.7-2.1,6.8-4.3,9.1-6.7c2.3-2.3,3.5-4.6,3.5-6.8
					c0-2-1.4-4-4.1-6.1c-2.8-2-7.9-4.5-15.4-7.2c-5.8-2.1-11.3-4.5-16.4-7.3c-5.2-2.8-10-5.8-14.3-9.2c-4.4-3.3-8.1-7-11.3-10.9
					c-3.2-3.9-5.6-8.1-7.4-12.6c-1.8-4.5-2.6-9.2-2.6-14.1c0-5.6,1.3-10.7,3.9-15.2c2.6-4.6,6.2-8.2,10.9-10.9c4.6-2.7,9.9-4,15.9-4
					c8.4,0,15.6,1.5,21.4,4.6c5.8,3.1,10.8,7.9,15,14.6c3.1,5.6,5.7,10.8,7.7,15.6c2,4.8,4.3,8.9,6.8,12.2c1.6,2.1,3.3,3.8,5.1,5.1
					c1.8,1.3,3.6,2,5.1,2c2.4,0,4.6-0.9,6.6-2.8c2-1.9,3.4-4.1,4.3-6.7c1.8-4.3,4-9.4,6.3-15.4c2.4-6,4.8-11.1,7.2-15.4
					c3-4.5,6.8-8.2,11.4-11.1c4.6-2.9,10.2-4.3,16.8-4.3c11,0,18.6,2.6,23,7.9c4.3,5.3,6.5,12.3,6.5,21c0,4.4-0.8,9.3-2.4,14.6
					c-1.6,5.3-3.7,10.9-6.5,16.8c-2.7,5.9-5.8,11.7-9.1,17.4c-3.3,5.8-6.8,11.3-10.5,16.6c-3.6,5.3-7.2,10.1-10.7,14.4
					c-6.4,8.1-13.3,15.7-20.6,22.8c-7.3,7.1-14.9,13.3-22.8,18.6c-7.9,5.3-16.2,9.5-24.7,12.5C296.7,257.7,287.9,259.2,278.8,259.2z
					"/>
				<path class="st10" d="M501.7,214.1c-10.8,0-21-1.2-30.7-3.6c-9.7-2.4-18.2-6.2-25.7-11.5c-7.5-5.3-13.4-12.3-17.7-20.8
					c-4.3-8.6-6.5-19-6.5-31.3c0-12.6,1.8-23.7,5.5-33.1c3.6-9.4,9-17.3,16.1-23.7c7.1-6.4,15.7-11.1,26-14.2
					c10.2-3.1,21.9-4.7,35.1-4.7c10.6,0,19.3,1.2,26,3.5c6.7,2.3,11.7,5.3,15,9.1c3.3,3.8,4.9,7.9,4.9,12.3c0,3.4-0.9,6.5-2.6,9.4
					c-1.8,2.8-4,5-6.8,6.6c-2.8,1.6-5.7,2.4-8.7,2.4c-2.6,0-5-0.3-7.2-0.9c-2.2-0.6-4.7-1.1-7.5-1.7c-2.8-0.5-6.3-0.8-10.5-0.8
					c-3.6,0-6.9,0.6-9.9,1.8c-3,1.2-5.6,2.9-7.8,5.1c-2.2,2.2-3.9,4.9-5.1,7.9c-1.2,3.1-1.8,6.5-1.8,10.2c0,5.9,0.9,10.6,2.8,14.2
					c1.9,3.6,4.6,6.3,8.2,8c3.6,1.7,7.9,2.5,13,2.5c3.6,0,7.2-0.3,10.7-0.9s6.9-1.4,10.2-2.2c3.3-0.8,6.2-1.6,8.8-2.3
					c2.6-0.7,4.7-1,6.3-1c5.3,0,9.4,1.2,12.4,3.6c3,2.4,5.1,5.3,6.4,8.8c1.3,3.5,1.9,6.9,1.9,10.3c0,6.5-1.6,12.1-4.8,16.8
					c-3.2,4.7-7.5,8.5-13.1,11.5s-11.9,5.2-19.3,6.7C517.8,213.4,510,214.1,501.7,214.1z"/>
				<path class="st10" d="M1024.5,210.3c-6.6,0-11.8-1.5-15.4-4.6c-3.6-3-6.1-7.3-7.4-12.9c-1.4-5.6-2-12-2-19.4
					c0-3.6,0.2-7.7,0.5-12.2c0.4-4.6,0.9-9.5,1.5-14.8c0.6-5.3,1.4-10.7,2.2-16.2c0.9-5.9,1.9-11.7,3-17.3c1.1-5.6,2.3-11,3.5-16
					c1.2-5,2.6-9.6,4-13.7c1.4-4.2,2.8-7.7,4.3-10.7c3.1-6.1,6.9-10.9,11.2-14.6c4.4-3.6,9.5-5.5,15.4-5.5c8,0,13.3,2.6,16,7.7
					c2.7,5.2,4,12,4,20.6c0,2.1-0.1,4.2-0.2,6.5c-0.1,2.2-0.3,4.5-0.5,6.7c-0.2,2.2-0.4,4.5-0.7,6.7c-0.2,2.2-0.5,4.4-0.7,6.6
					c-0.2,2.2-0.3,4.2-0.4,6.2c-0.1,2-0.1,3.9-0.1,5.8c0,2.6,0.1,4.9,0.4,6.7c0.3,1.8,0.9,2.8,1.9,2.8c1,0,2.2-0.4,3.4-1.3
					c1.2-0.9,2.4-2.1,3.7-3.6c0.9-1,2-2.3,3.2-3.7c1.3-1.4,2.7-2.9,4.1-4.5c1.5-1.6,3-3.2,4.6-4.7c1.6-1.6,3.2-3,4.7-4.4
					c1.6-1.4,3.1-2.5,4.6-3.5c2.6-1.8,5.7-3.2,9.2-4.2c3.5-1,6.9-1.4,10.3-1.4c6.2,0,11.2,1.6,15,4.7s5.8,7.4,5.8,12.7
					c0,3.5-1.1,7.2-3.2,10.9c-2.1,3.8-5.5,7.2-10,10.3c-2.8,2.2-5.4,4.1-7.7,5.9c-2.4,1.8-4.4,3.4-6.2,4.9c-2.4,2-3.6,3.6-3.6,4.9
					c0,0.9,0.4,1.7,1.1,2.3c0.8,0.7,1.7,1.3,2.9,2c1.7,1,3.7,2.1,6.2,3.5c2.4,1.4,5,2.9,7.7,4.6c2.7,1.7,5.4,3.4,8,5.2
					c2.6,1.8,4.9,3.7,6.9,5.6c1.9,1.9,3.5,3.9,4.7,6c1.2,2.1,1.8,4.4,1.8,6.8c0,3.7-1,7.2-3.1,10.4c-2.1,3.3-4.9,5.9-8.5,8
					c-3.6,2-7.6,3.1-12.1,3.1c-4.1,0-7.8-0.8-11.1-2.3c-3.3-1.6-6.5-3.7-9.5-6.4c-2.5-2.2-5.1-4.6-7.9-7.4c-2.8-2.8-5.7-5.7-8.6-8.8
					c-3-3.1-6-6.1-9.1-9.2c-1.8-1.9-3.5-3.5-5.2-4.9c-1.7-1.3-3.5-2-5.2-2c-1.9,0-3.4,0.6-4.4,1.7c-1,1.2-1.8,2.5-2.3,4.1
					c-1.4,4.9-2.7,9.2-4.1,12.9c-1.4,3.7-2.8,6.9-4.2,9.5c-2.6,4.6-5.7,8.1-9.1,10.3C1034.4,209.2,1030,210.3,1024.5,210.3z"/>
				<path class="st10" d="M1188.3,209.3c-7.9,0-14-1.4-18.4-4.1c-4.3-2.8-7.3-6.8-8.9-12c-1.6-5.2-2.5-11.6-2.5-19
					c0-2.5,0.1-5,0.2-7.7c0.1-2.6,0.3-5.3,0.5-7.9c0.2-2.6,0.5-5.2,0.8-7.7c0.4-2.5,0.7-5,1.1-7.4c0.4-2.4,0.9-4.7,1.4-6.8
					c0.6-2.2,1.2-4.1,1.8-5.8c3.2-7.7,7.9-13.5,14.2-17.6c6.3-4,14.3-6.1,24.2-6.1c9.1,0,15.9,3.2,20.2,9.7
					c4.4,6.5,6.5,15.2,6.5,26.2c0,3-0.1,6.2-0.3,9.4c-0.2,3.2-0.5,6.5-0.8,9.7c-0.4,3.2-0.8,6.4-1.4,9.5c-0.6,3.1-1.2,6.1-2,8.9
					c-0.8,2.8-1.7,5.4-2.6,7.8c-0.9,2.4-2,4.5-3.3,6.2c-3.2,4.8-7.4,8.5-12.5,11C1201.5,208.1,1195.4,209.3,1188.3,209.3z
					 M1199.2,96.8c-10.8,0-18.6-1.8-23.3-5.3c-4.8-3.5-7.1-7.6-7.1-12.1c0-6,2.1-11.1,6.4-15.4c4.3-4.2,9.7-7.5,16.1-9.7
					c6.5-2.2,13-3.4,19.7-3.4c4.8,0,9.3,0.8,13.4,2.3c4.2,1.5,7.5,3.9,10.1,7.1c2.6,3.2,3.8,7.4,3.8,12.6c0,5.9-1.8,10.6-5.5,14.1
					c-3.6,3.5-8.4,6-14.3,7.5C1212.6,96,1206.1,96.8,1199.2,96.8z"/>
				<path class="st10" d="M1280.4,206.9c-6.8,0-12.4-1.2-16.9-3.5c-4.4-2.4-7.8-6.2-10.1-11.6c-0.6-1.7-1-3.6-1.4-5.6
					c-0.4-2.1-0.7-4.3-0.8-6.8c-0.2-2.4-0.2-5.1-0.1-7.9c0.2-16.7,3.6-31,10.4-42.7c6.8-11.8,16.2-20.8,28.2-27.1
					c12-6.3,25.8-9.4,41.3-9.4c15.7,0,29.7,3.1,42,9.2c12.3,6.1,22,15,29,26.6c7,11.6,10.6,25.6,10.6,42c0,2.6-0.1,5-0.4,7.3
					c-0.3,2.3-0.7,4.5-1.2,6.5c-0.5,2-1.2,4-2,5.8c-2.4,5.5-5.9,9.8-10.6,12.7c-4.6,3-10.1,4.4-16.3,4.4c-7.6,0-13.5-1-17.6-2.9
					c-4.2-2-7.1-4.8-8.9-8.5c-1.8-3.7-3.1-8.1-3.9-13.2c-0.5-4-1-7.6-1.4-10.9c-0.5-3.2-1-6.2-1.5-8.8c-0.5-2.6-1-4.9-1.5-7
					c-0.5-2.1-1-4-1.7-5.6c-1.4-4-3.1-6.9-5.1-8.6c-2-1.7-4.7-2.6-8.1-2.6c-2.9,0-5.4,0.9-7.4,2.7c-2.1,1.8-3.9,4.6-5.4,8.3
					c-0.8,1.8-1.5,3.9-2.2,6.2c-0.7,2.3-1.3,4.9-1.9,7.7c-0.6,2.8-1.1,6-1.6,9.5c-0.5,3.5-1.1,7.3-1.6,11.5
					c-0.8,5.8-2.7,10.2-5.8,13.4c-3.1,3.2-6.8,5.4-11.3,6.7C1290.6,206.3,1285.7,206.9,1280.4,206.9z"/>
				<path class="st10" d="M1489.8,259.6c-12.8,0-23.1-0.7-30.8-2.2c-7.7-1.5-13.6-3.5-17.5-6c-4-2.5-6.6-5.4-8-8.5
					c-1.4-3.2-2-6.3-2-9.5c0-3.8,1.3-7,4-9.6c2.7-2.6,6.3-4.5,10.8-5.8c4.5-1.3,9.5-2,15.1-2c3.4,0,6.9,0.1,10.7,0.2
					c3.8,0.1,7.6,0.2,11.3,0.2c3.8,0,7.4-0.1,10.9-0.2c3.5-0.1,6.6-0.4,9.3-0.9c1.9-0.2,3.6-0.7,4.9-1.5c1.4-0.8,2.5-1.7,3.4-2.8
					c0.9-1.1,1.5-2.2,1.9-3.5c0.4-1.2,0.6-2.5,0.6-3.8c0-0.5-0.1-0.9-0.2-1.4c-0.2-0.4-0.4-0.8-0.7-1.1c-0.3-0.3-0.7-0.4-1.2-0.4
					c-1,0-2.2,0.2-3.8,0.7c-1.6,0.4-3.4,0.9-5.6,1.5c-2.2,0.6-4.6,1.1-7.4,1.5c-2.8,0.4-5.8,0.7-9.2,0.7c-12.7,0-23.4-2-32.1-5.9
					c-8.7-3.9-15.2-9.9-19.7-17.8c-4.4-8-6.7-18-6.7-30.2c0-10.1,2.2-18.9,6.7-26.4c4.5-7.5,10.5-13.8,18-18.8
					c7.5-5,16-8.8,25.3-11.3c9.4-2.5,19-3.8,28.8-3.8c10.6,0,20.5,1.6,29.5,4.7c9,3.2,16.9,7.8,23.7,13.9c6.8,6.1,12,13.7,15.7,22.7
					c3.7,9,5.6,19.4,5.6,31.1c0,15.1-1.9,28.6-5.7,40.6c-3.8,11.9-9.5,22-17,30.3c-7.6,8.3-17.1,14.6-28.6,18.9
					C1518.5,257.4,1505.1,259.6,1489.8,259.6z M1503.9,168.4c3.4,0,6.3-0.4,8.9-1.3c2.6-0.9,4.8-2.1,6.5-3.7c1.8-1.6,3.1-3.5,4-5.8
					c0.9-2.3,1.4-4.9,1.4-7.7c0-3.7-0.7-6.9-2.2-9.5c-1.4-2.7-3.6-4.7-6.4-6.1c-2.8-1.4-6.2-2.1-10.2-2.1c-2.7,0-5.4,0.4-8,1.3
					c-2.6,0.8-4.9,2.1-7,3.7c-2.1,1.6-3.7,3.6-4.9,6.1c-1.2,2.4-1.8,5.3-1.8,8.5c0,3,0.8,5.9,2.3,8.5c1.5,2.6,3.7,4.7,6.7,6.2
					C1496.2,167.6,1499.7,168.4,1503.9,168.4z"/>
			</g>
		</g>
	</g>
	<g>
		<path class="st3" d="M600.2,123.7c5.5-18-4.9-27.5,2.3-36.7c5.6-7.1,12.5-2.3,25.7-10c15.9-9.2,13.8-20.6,24.7-23.7
			c13.9-3.9,19.6,14,41.1,15c17.3,0.8,22.2-10.3,38.4-6.3c2,0.5,15.1,3.7,20.4,14.4c4.9,9.8-2.3,15.4,2,25.4
			c5.5,12.6,20.1,10.5,22.7,20.7c2.3,9-8.5,12.3-12,29c-3.3,15.5,4.4,20.2-0.7,30.7c-4.8,10-12.5,7.3-22.7,19.4
			c-11.1,13.1-6.9,22.1-15.4,27c-9.4,5.5-16.6-4.4-38-6.3c-26-2.4-33.2,10.6-47.8,3.7c-11.1-5.3-6.9-12.7-25-29.1
			c-11.7-10.6-16.8-10.5-22.7-20c-1.4-2.3-8.3-13.5-6.3-27C588.6,137.1,596,137.2,600.2,123.7z"/>
		<circle id="_x33_er_yema_3_" class="st2" cx="682.1" cy="141.5" r="36.6"/>
		<path id="_x33_er_luz_3_" class="st4" d="M676,124.5l9.1-11.6c0,0,10.4-0.8,19.2,7.4l-8,12.1C696.3,132.4,690.3,124.8,676,124.5z"
			/>
	</g>
	<g id="HUEVO_BLANCO">
		<path class="st3" d="M801.4,123.7c5.5-18-4.9-27.5,2.3-36.7c5.6-7.1,12.5-2.3,25.7-10c15.9-9.2,13.8-20.6,24.7-23.7
			c13.9-3.9,19.6,14,41.1,15c17.3,0.8,22.2-10.3,38.4-6.3c2,0.5,15.1,3.7,20.4,14.4c4.9,9.8-2.3,15.4,2,25.4
			c5.5,12.6,20.1,10.5,22.7,20.7c2.3,9-8.5,12.3-12,29c-3.3,15.5,4.4,20.2-0.7,30.7c-4.8,10-12.5,7.3-22.7,19.4
			c-11.1,13.1-6.9,22.1-15.4,27c-9.4,5.5-16.6-4.4-38-6.3c-26-2.4-33.2,10.6-47.8,3.7c-11.1-5.3-6.9-12.7-25-29.1
			c-11.7-10.6-16.8-10.5-22.7-20c-1.4-2.3-8.3-13.5-6.3-27C789.9,137.1,797.3,137.2,801.4,123.7z"/>
		<circle id="_x33_er_yema_1_" class="st2" cx="883.4" cy="141.5" r="36.6"/>
		<path id="_x33_er_luz_1_" class="st4" d="M877.3,124.5l9.1-11.6c0,0,10.4-0.8,19.2,7.4l-8,12.1
			C897.6,132.4,891.5,124.8,877.3,124.5z"/>
	</g>
</g>
</svg>
